<mxfile host="app.diagrams.net" modified="2020-10-01T06:27:03.012Z" agent="5.0 (Windows NT 10.0; Win64; x64) AppleWebKit/537.36 (KHTML, like Gecko) Chrome/85.0.4183.121 Safari/537.36" etag="qjX57q5vDLJY-AiXLRCh" version="13.7.7" type="github" pages="3">
  <diagram id="2zSw1ozdAx9YCcmu5oCu" name="Page-1">
    <mxGraphModel dx="2249" dy="762" grid="1" gridSize="10" guides="1" tooltips="1" connect="1" arrows="1" fold="1" page="1" pageScale="1" pageWidth="827" pageHeight="1169" math="0" shadow="0">
      <root>
        <mxCell id="0" />
        <mxCell id="1" parent="0" />
        <mxCell id="Rp9fFwVCMiht8qJfYpme-1" value="" style="whiteSpace=wrap;html=1;aspect=fixed;" vertex="1" parent="1">
          <mxGeometry x="-720" width="1030" height="1030" as="geometry" />
        </mxCell>
        <mxCell id="Rp9fFwVCMiht8qJfYpme-2" value="" style="verticalLabelPosition=bottom;verticalAlign=top;html=1;shape=trapezoid;perimeter=trapezoidPerimeter;whiteSpace=wrap;size=0.23;arcSize=10;flipV=1;strokeColor=#B09500;fontColor=#ffffff;fillColor=#FFE100;" vertex="1" parent="1">
          <mxGeometry x="-640" y="200" width="880" height="790" as="geometry" />
        </mxCell>
        <mxCell id="Rp9fFwVCMiht8qJfYpme-3" value="" style="shape=document;whiteSpace=wrap;html=1;boundedLbl=1;rotation=-180;" vertex="1" parent="1">
          <mxGeometry x="-623.75" y="40" width="847.5" height="250" as="geometry" />
        </mxCell>
        <mxCell id="Rp9fFwVCMiht8qJfYpme-4" value="&lt;font style=&quot;font-size: 45px&quot; face=&quot;Times New Roman&quot;&gt;Inició de sesión&amp;nbsp;&lt;/font&gt;" style="rounded=0;whiteSpace=wrap;html=1;fillColor=#FFE100;gradientColor=none;" vertex="1" parent="1">
          <mxGeometry x="-415" y="690" width="450" height="80" as="geometry" />
        </mxCell>
        <mxCell id="Rp9fFwVCMiht8qJfYpme-5" value="&lt;font style=&quot;font-size: 45px&quot; face=&quot;Times New Roman&quot;&gt;Contraseña&lt;/font&gt;" style="rounded=0;whiteSpace=wrap;html=1;fillColor=#FFE100;gradientColor=none;" vertex="1" parent="1">
          <mxGeometry x="-415" y="500" width="460" height="100" as="geometry" />
        </mxCell>
        <mxCell id="Rp9fFwVCMiht8qJfYpme-6" value="&lt;font face=&quot;Times New Roman&quot;&gt;&lt;font style=&quot;font-size: 45px&quot;&gt;Usuario&lt;/font&gt;&lt;font style=&quot;font-size: 30px&quot;&gt;&amp;nbsp;&lt;/font&gt;&lt;/font&gt;" style="rounded=0;whiteSpace=wrap;html=1;fillColor=#FFE100;gradientColor=none;fontSize=15;" vertex="1" parent="1">
          <mxGeometry x="-420" y="350" width="460" height="100" as="geometry" />
        </mxCell>
        <mxCell id="Rp9fFwVCMiht8qJfYpme-7" value="&lt;font style=&quot;font-size: 32px&quot;&gt;Logo&lt;/font&gt;" style="ellipse;whiteSpace=wrap;html=1;fillColor=#FFE100;gradientColor=none;fontSize=15;" vertex="1" parent="1">
          <mxGeometry x="-400" y="140" width="380" height="140" as="geometry" />
        </mxCell>
      </root>
    </mxGraphModel>
  </diagram>
  <diagram id="l6WyanLUjHgWOI5cGvtu" name="Page-2">
    <mxGraphModel dx="2249" dy="762" grid="1" gridSize="10" guides="1" tooltips="1" connect="1" arrows="1" fold="1" page="1" pageScale="1" pageWidth="827" pageHeight="1169" math="0" shadow="0">
      <root>
        <mxCell id="KTYtCJPysMg-RYCOlbGu-0" />
        <mxCell id="KTYtCJPysMg-RYCOlbGu-1" parent="KTYtCJPysMg-RYCOlbGu-0" />
        <mxCell id="KTYtCJPysMg-RYCOlbGu-2" value="" style="whiteSpace=wrap;html=1;aspect=fixed;" vertex="1" parent="KTYtCJPysMg-RYCOlbGu-1">
          <mxGeometry x="-552.5" y="460" width="1020" height="1020" as="geometry" />
        </mxCell>
        <mxCell id="KTYtCJPysMg-RYCOlbGu-3" value="" style="shape=offPageConnector;whiteSpace=wrap;html=1;fillColor=#FFE100;gradientColor=none;fontSize=31;" vertex="1" parent="KTYtCJPysMg-RYCOlbGu-1">
          <mxGeometry x="-370" y="690" width="660" height="510" as="geometry" />
        </mxCell>
        <mxCell id="KTYtCJPysMg-RYCOlbGu-4" value="" style="shape=loopLimit;whiteSpace=wrap;html=1;fillColor=#FFE100;gradientColor=none;fontSize=31;rotation=-180;" vertex="1" parent="KTYtCJPysMg-RYCOlbGu-1">
          <mxGeometry x="-370" y="940" width="660" height="390" as="geometry" />
        </mxCell>
        <mxCell id="KTYtCJPysMg-RYCOlbGu-5" value="" style="shape=document;whiteSpace=wrap;html=1;boundedLbl=1;rotation=-180;verticalAlign=middle;" vertex="1" parent="KTYtCJPysMg-RYCOlbGu-1">
          <mxGeometry x="-375" y="630" width="665" height="160" as="geometry" />
        </mxCell>
        <mxCell id="KTYtCJPysMg-RYCOlbGu-6" value="&lt;font style=&quot;font-size: 32px&quot;&gt;Logo&lt;/font&gt;" style="ellipse;whiteSpace=wrap;html=1;fillColor=#FFE100;gradientColor=none;fontSize=15;" vertex="1" parent="KTYtCJPysMg-RYCOlbGu-1">
          <mxGeometry x="-245" y="680" width="350" height="110" as="geometry" />
        </mxCell>
        <mxCell id="KTYtCJPysMg-RYCOlbGu-7" value="Usuario *" style="text;html=1;strokeColor=none;fillColor=none;align=center;verticalAlign=middle;whiteSpace=wrap;rounded=0;fontSize=31;" vertex="1" parent="KTYtCJPysMg-RYCOlbGu-1">
          <mxGeometry x="-280" y="820" width="140" height="20" as="geometry" />
        </mxCell>
        <mxCell id="KTYtCJPysMg-RYCOlbGu-8" value="" style="rounded=1;whiteSpace=wrap;html=1;fillColor=#FFE100;gradientColor=none;fontSize=31;" vertex="1" parent="KTYtCJPysMg-RYCOlbGu-1">
          <mxGeometry x="-280" y="1030" width="440" height="80" as="geometry" />
        </mxCell>
        <mxCell id="KTYtCJPysMg-RYCOlbGu-9" value="" style="rounded=1;whiteSpace=wrap;html=1;fillColor=#FFE100;gradientColor=none;fontSize=31;" vertex="1" parent="KTYtCJPysMg-RYCOlbGu-1">
          <mxGeometry x="-280" y="850" width="440" height="80" as="geometry" />
        </mxCell>
        <mxCell id="KTYtCJPysMg-RYCOlbGu-10" value="Contraseña *" style="text;html=1;strokeColor=none;fillColor=none;align=center;verticalAlign=middle;whiteSpace=wrap;rounded=0;fontSize=31;" vertex="1" parent="KTYtCJPysMg-RYCOlbGu-1">
          <mxGeometry x="-280" y="990" width="190" height="20" as="geometry" />
        </mxCell>
        <mxCell id="KTYtCJPysMg-RYCOlbGu-11" value="&lt;span style=&quot;font-family: &amp;#34;times new roman&amp;#34; ; font-size: 45px&quot;&gt;Inició de sesión&amp;nbsp;&lt;/span&gt;" style="rounded=1;whiteSpace=wrap;html=1;fillColor=#FFE100;gradientColor=none;fontSize=31;" vertex="1" parent="KTYtCJPysMg-RYCOlbGu-1">
          <mxGeometry x="-280" y="1169" width="440" height="80" as="geometry" />
        </mxCell>
      </root>
    </mxGraphModel>
  </diagram>
  <diagram id="0P9r5f20CiDJiuLZsbDv" name="Page-3">
    <mxGraphModel dx="2249" dy="762" grid="1" gridSize="10" guides="1" tooltips="1" connect="1" arrows="1" fold="1" page="1" pageScale="1" pageWidth="827" pageHeight="1169" math="0" shadow="0">
      <root>
        <mxCell id="g1rmBFUN-sspoTF_PKnN-0" />
        <mxCell id="g1rmBFUN-sspoTF_PKnN-1" parent="g1rmBFUN-sspoTF_PKnN-0" />
        <mxCell id="g1rmBFUN-sspoTF_PKnN-2" value="" style="whiteSpace=wrap;html=1;aspect=fixed;" vertex="1" parent="g1rmBFUN-sspoTF_PKnN-1">
          <mxGeometry x="-560" y="320" width="1030" height="1030" as="geometry" />
        </mxCell>
        <mxCell id="g1rmBFUN-sspoTF_PKnN-3" value="&lt;font style=&quot;font-size: 32px&quot;&gt;Logo&lt;/font&gt;" style="ellipse;whiteSpace=wrap;html=1;fontSize=15;" vertex="1" parent="g1rmBFUN-sspoTF_PKnN-1">
          <mxGeometry x="-360" y="480" width="690" height="190" as="geometry" />
        </mxCell>
        <mxCell id="g1rmBFUN-sspoTF_PKnN-4" value="&lt;span style=&quot;color: rgba(0 , 0 , 0 , 0) ; font-family: monospace ; font-size: 0px&quot;&gt;%3CmxGraphModel%3E%3Croot%3E%3CmxCell%20id%3D%220%22%2F%3E%3CmxCell%20id%3D%221%22%20parent%3D%220%22%2F%3E%3CmxCell%20id%3D%222%22%20value%3D%22%26lt%3Bfont%20style%3D%26quot%3Bfont-size%3A%2045px%26quot%3B%20face%3D%26quot%3BTimes%20New%20Roman%26quot%3B%26gt%3BContrase%C3%B1a%26lt%3B%2Ffont%26gt%3B%22%20style%3D%22rounded%3D0%3BwhiteSpace%3Dwrap%3Bhtml%3D1%3BfillColor%3D%23FFE100%3BgradientColor%3Dnone%3B%22%20vertex%3D%221%22%20parent%3D%221%22%3E%3CmxGeometry%20x%3D%22-420%22%20y%3D%22680%22%20width%3D%22460%22%20height%3D%22100%22%20as%3D%22geometry%22%2F%3E%3C%2FmxCell%3E%3CmxCell%20id%3D%223%22%20value%3D%22%26lt%3Bfont%20face%3D%26quot%3BTimes%20New%20Roman%26quot%3B%26gt%3B%26lt%3Bfont%20style%3D%26quot%3Bfont-size%3A%2045px%26quot%3B%26gt%3BUsuario%26lt%3B%2Ffont%26gt%3B%26lt%3Bfont%20style%3D%26quot%3Bfont-size%3A%2030px%26quot%3B%26gt%3B%26amp%3Bnbsp%3B%26lt%3B%2Ffont%26gt%3B%26lt%3B%2Ffont%26gt%3B%22%20style%3D%22rounded%3D0%3BwhiteSpace%3Dwrap%3Bhtml%3D1%3BfillColor%3D%23FFE100%3BgradientColor%3Dnone%3BfontSize%3D15%3B%22%20vertex%3D%221%22%20parent%3D%221%22%3E%3CmxGeometry%20x%3D%22-410%22%20y%3D%22500%22%20width%3D%22460%22%20height%3D%22100%22%20as%3D%22geometry%22%2F%3E%3C%2FmxCell%3E%3C%2Froot%3E%3C%2FmxGraphModel%3E&lt;/span&gt;&lt;span style=&quot;color: rgba(0 , 0 , 0 , 0) ; font-family: monospace ; font-size: 0px&quot;&gt;%3CmxGraphModel%3E%3Croot%3E%3CmxCell%20id%3D%220%22%2F%3E%3CmxCell%20id%3D%221%22%20parent%3D%220%22%2F%3E%3CmxCell%20id%3D%222%22%20value%3D%22%26lt%3Bfont%20style%3D%26quot%3Bfont-size%3A%2045px%26quot%3B%20face%3D%26quot%3BTimes%20New%20Roman%26quot%3B%26gt%3BContrase%C3%B1a%26lt%3B%2Ffont%26gt%3B%22%20style%3D%22rounded%3D0%3BwhiteSpace%3Dwrap%3Bhtml%3D1%3BfillColor%3D%23FFE100%3BgradientColor%3Dnone%3B%22%20vertex%3D%221%22%20parent%3D%221%22%3E%3CmxGeometry%20x%3D%22-420%22%20y%3D%22680%22%20width%3D%22460%22%20height%3D%22100%22%20as%3D%22geometry%22%2F%3E%3C%2FmxCell%3E%3CmxCell%20id%3D%223%22%20value%3D%22%26lt%3Bfont%20face%3D%26quot%3BTimes%20New%20Roman%26quot%3B%26gt%3B%26lt%3Bfont%20style%3D%26quot%3Bfont-size%3A%2045px%26quot%3B%26gt%3BUsuario%26lt%3B%2Ffont%26gt%3B%26lt%3Bfont%20style%3D%26quot%3Bfont-size%3A%2030px%26quot%3B%26gt%3B%26amp%3Bnbsp%3B%26lt%3B%2Ffont%26gt%3B%26lt%3B%2Ffont%26gt%3B%22%20style%3D%22rounded%3D0%3BwhiteSpace%3Dwrap%3Bhtml%3D1%3BfillColor%3D%23FFE100%3BgradientColor%3Dnone%3BfontSize%3D15%3B%22%20vertex%3D%221%22%20parent%3D%221%22%3E%3CmxGeometry%20x%3D%22-410%22%20y%3D%22500%22%20width%3D%22460%22%20height%3D%22100%22%20as%3D%22geometry%22%2F%3E%3C%2FmxCell%3E%3C%2Froot%3E%3C%2FmxGraphModel%3E&lt;/span&gt;&lt;span style=&quot;color: rgba(0 , 0 , 0 , 0) ; font-family: monospace ; font-size: 0px&quot;&gt;%3CmxGraphModel%3E%3Croot%3E%3CmxCell%20id%3D%220%22%2F%3E%3CmxCell%20id%3D%221%22%20parent%3D%220%22%2F%3E%3CmxCell%20id%3D%222%22%20value%3D%22%26lt%3Bfont%20style%3D%26quot%3Bfont-size%3A%2045px%26quot%3B%20face%3D%26quot%3BTimes%20New%20Roman%26quot%3B%26gt%3BContrase%C3%B1a%26lt%3B%2Ffont%26gt%3B%22%20style%3D%22rounded%3D0%3BwhiteSpace%3Dwrap%3Bhtml%3D1%3BfillColor%3D%23FFE100%3BgradientColor%3Dnone%3B%22%20vertex%3D%221%22%20parent%3D%221%22%3E%3CmxGeometry%20x%3D%22-420%22%20y%3D%22680%22%20width%3D%22460%22%20height%3D%22100%22%20as%3D%22geometry%22%2F%3E%3C%2FmxCell%3E%3CmxCell%20id%3D%223%22%20value%3D%22%26lt%3Bfont%20face%3D%26quot%3BTimes%20New%20Roman%26quot%3B%26gt%3B%26lt%3Bfont%20style%3D%26quot%3Bfont-size%3A%2045px%26quot%3B%26gt%3BUsuario%26lt%3B%2Ffont%26gt%3B%26lt%3Bfont%20style%3D%26quot%3Bfont-size%3A%2030px%26quot%3B%26gt%3B%26amp%3Bnbsp%3B%26lt%3B%2Ffont%26gt%3B%26lt%3B%2Ffont%26gt%3B%22%20style%3D%22rounded%3D0%3BwhiteSpace%3Dwrap%3Bhtml%3D1%3BfillColor%3D%23FFE100%3BgradientColor%3Dnone%3BfontSize%3D15%3B%22%20vertex%3D%221%22%20parent%3D%221%22%3E%3CmxGeometry%20x%3D%22-410%22%20y%3D%22500%22%20width%3D%22460%22%20height%3D%22100%22%20as%3D%22geometry%22%2F%3E%3C%2FmxCell%3E%3C%2Froot%3E%3C%2FmxGraphModel%3E&lt;/span&gt;&lt;span style=&quot;color: rgba(0 , 0 , 0 , 0) ; font-family: monospace ; font-size: 0px&quot;&gt;%3CmxGraphModel%3E%3Croot%3E%3CmxCell%20id%3D%220%22%2F%3E%3CmxCell%20id%3D%221%22%20parent%3D%220%22%2F%3E%3CmxCell%20id%3D%222%22%20value%3D%22%26lt%3Bfont%20style%3D%26quot%3Bfont-size%3A%2045px%26quot%3B%20face%3D%26quot%3BTimes%20New%20Roman%26quot%3B%26gt%3BContrase%C3%B1a%26lt%3B%2Ffont%26gt%3B%22%20style%3D%22rounded%3D0%3BwhiteSpace%3Dwrap%3Bhtml%3D1%3BfillColor%3D%23FFE100%3BgradientColor%3Dnone%3B%22%20vertex%3D%221%22%20parent%3D%221%22%3E%3CmxGeometry%20x%3D%22-420%22%20y%3D%22680%22%20width%3D%22460%22%20height%3D%22100%22%20as%3D%22geometry%22%2F%3E%3C%2FmxCell%3E%3CmxCell%20id%3D%223%22%20value%3D%22%26lt%3Bfont%20face%3D%26quot%3BTimes%20New%20Roman%26quot%3B%26gt%3B%26lt%3Bfont%20style%3D%26quot%3Bfont-size%3A%2045px%26quot%3B%26gt%3BUsuario%26lt%3B%2Ffont%26gt%3B%26lt%3Bfont%20style%3D%26quot%3Bfont-size%3A%2030px%26quot%3B%26gt%3B%26amp%3Bnbsp%3B%26lt%3B%2Ffont%26gt%3B%26lt%3B%2Ffont%26gt%3B%22%20style%3D%22rounded%3D0%3BwhiteSpace%3Dwrap%3Bhtml%3D1%3BfillColor%3D%23FFE100%3BgradientColor%3Dnone%3BfontSize%3D15%3B%22%20vertex%3D%221%22%20parent%3D%221%22%3E%3CmxGeometry%20x%3D%22-410%22%20y%3D%22500%22%20width%3D%22460%22%20height%3D%22100%22%20as%3D%22geometry%22%2F%3E%3C%2FmxCell%3E%3C%2Froot%3E%3C%2FmxGraphModel%3E&lt;/span&gt;&lt;span style=&quot;color: rgba(0 , 0 , 0 , 0) ; font-family: monospace ; font-size: 0px&quot;&gt;%3CmxGraphModel%3E%3Croot%3E%3CmxCell%20id%3D%220%22%2F%3E%3CmxCell%20id%3D%221%22%20parent%3D%220%22%2F%3E%3CmxCell%20id%3D%222%22%20value%3D%22%26lt%3Bfont%20style%3D%26quot%3Bfont-size%3A%2045px%26quot%3B%20face%3D%26quot%3BTimes%20New%20Roman%26quot%3B%26gt%3BContrase%C3%B1a%26lt%3B%2Ffont%26gt%3B%22%20style%3D%22rounded%3D0%3BwhiteSpace%3Dwrap%3Bhtml%3D1%3BfillColor%3D%23FFE100%3BgradientColor%3Dnone%3B%22%20vertex%3D%221%22%20parent%3D%221%22%3E%3CmxGeometry%20x%3D%22-420%22%20y%3D%22680%22%20width%3D%22460%22%20height%3D%22100%22%20as%3D%22geometry%22%2F%3E%3C%2FmxCell%3E%3CmxCell%20id%3D%223%22%20value%3D%22%26lt%3Bfont%20face%3D%26quot%3BTimes%20New%20Roman%26quot%3B%26gt%3B%26lt%3Bfont%20style%3D%26quot%3Bfont-size%3A%2045px%26quot%3B%26gt%3BUsuario%26lt%3B%2Ffont%26gt%3B%26lt%3Bfont%20style%3D%26quot%3Bfont-size%3A%2030px%26quot%3B%26gt%3B%26amp%3Bnbsp%3B%26lt%3B%2Ffont%26gt%3B%26lt%3B%2Ffont%26gt%3B%22%20style%3D%22rounded%3D0%3BwhiteSpace%3Dwrap%3Bhtml%3D1%3BfillColor%3D%23FFE100%3BgradientColor%3Dnone%3BfontSize%3D15%3B%22%20vertex%3D%221%22%20parent%3D%221%22%3E%3CmxGeometry%20x%3D%22-410%22%20y%3D%22500%22%20width%3D%22460%22%20height%3D%22100%22%20as%3D%22geometry%22%2F%3E%3C%2FmxCell%3E%3C%2Froot%3E%3C%2FmxGraphModel%3E&lt;/span&gt;" style="whiteSpace=wrap;html=1;aspect=fixed;fontSize=31;" vertex="1" parent="g1rmBFUN-sspoTF_PKnN-1">
          <mxGeometry x="-325" y="680" width="630" height="630" as="geometry" />
        </mxCell>
        <mxCell id="g1rmBFUN-sspoTF_PKnN-5" value="&lt;font style=&quot;font-size: 45px&quot; face=&quot;Times New Roman&quot;&gt;Contraseña&lt;/font&gt;" style="rounded=0;whiteSpace=wrap;html=1;" vertex="1" parent="g1rmBFUN-sspoTF_PKnN-1">
          <mxGeometry x="-248.75" y="890" width="438.75" height="90" as="geometry" />
        </mxCell>
        <mxCell id="g1rmBFUN-sspoTF_PKnN-6" value="&lt;font face=&quot;Times New Roman&quot;&gt;&lt;font style=&quot;font-size: 45px&quot;&gt;Usuario&lt;/font&gt;&lt;font style=&quot;font-size: 30px&quot;&gt;&amp;nbsp;&lt;/font&gt;&lt;/font&gt;" style="rounded=0;whiteSpace=wrap;html=1;fontSize=15;" vertex="1" parent="g1rmBFUN-sspoTF_PKnN-1">
          <mxGeometry x="-250" y="720" width="435" height="90" as="geometry" />
        </mxCell>
        <mxCell id="g1rmBFUN-sspoTF_PKnN-7" value="Inició de sesión" style="labelPosition=center;verticalLabelPosition=middle;align=center;html=1;shape=mxgraph.basic.button;dx=10;fillColor=#FFE100;gradientColor=none;fontSize=31;" vertex="1" parent="g1rmBFUN-sspoTF_PKnN-1">
          <mxGeometry x="-250" y="1040" width="500" height="150" as="geometry" />
        </mxCell>
        <mxCell id="g1rmBFUN-sspoTF_PKnN-8" value="" style="verticalLabelPosition=bottom;verticalAlign=top;html=1;shape=mxgraph.basic.half_circle;fontSize=31;rotation=-165;" vertex="1" parent="g1rmBFUN-sspoTF_PKnN-1">
          <mxGeometry x="-390" y="400" width="170" height="90" as="geometry" />
        </mxCell>
        <mxCell id="g1rmBFUN-sspoTF_PKnN-9" value="" style="shape=loopLimit;whiteSpace=wrap;html=1;fontSize=31;rotation=-120;strokeColor=#d6b656;fillColor=#FFE100;" vertex="1" parent="g1rmBFUN-sspoTF_PKnN-1">
          <mxGeometry x="-491.16" y="356.65" width="210" height="230" as="geometry" />
        </mxCell>
      </root>
    </mxGraphModel>
  </diagram>
</mxfile>
